<?xml version="1.0" encoding="UTF-8"?>
<svg version="1.1" xmlns="http://www.w3.org/2000/svg" width="85" height="52">
<path d="M0 0 C24.65384615 0 24.65384615 0 29.8125 4.625 C31.65209137 8.30418274 32.12806519 11.90191396 32 16 C30.64739645 19.65202958 29.09862057 22.5749926 26 25 C25.34 25 24.68 25 24 25 C24.36351563 25.5347998 24.72703125 26.06959961 25.1015625 26.62060547 C26.73915793 29.03553385 28.36964824 31.4551761 30 33.875 C30.57234375 34.71675781 31.1446875 35.55851562 31.734375 36.42578125 C32.27578125 37.23144531 32.8171875 38.03710938 33.375 38.8671875 C33.87773438 39.61081543 34.38046875 40.35444336 34.8984375 41.12060547 C36 43 36 43 36 45 C31.69659449 45.98301141 28.25814872 46.28711067 24 45 C19.8543407 40.88780717 17.34517996 35.27073275 15 30 C15 29.34 15 28.68 15 28 C13.35 28 11.7 28 10 28 C10 33.61 10 39.22 10 45 C6.7 45 3.4 45 0 45 C0 30.15 0 15.3 0 0 Z M10 8 C10 11.96 10 15.92 10 20 C13.3 19.34 16.6 18.68 20 18 C20.33 15.69 20.66 13.38 21 11 C18.28817788 8.39665076 17.10866187 8.00543309 13.25 7.8125 C11.64125 7.9053125 11.64125 7.9053125 10 8 Z " fill="#EDD60D" transform="translate(49,4)"/>
<path d="M0 0 C1.79244141 0.01740234 1.79244141 0.01740234 3.62109375 0.03515625 C5.41740234 0.04869141 5.41740234 0.04869141 7.25 0.0625 C8.17683594 0.07410156 9.10367187 0.08570313 10.05859375 0.09765625 C10.44192871 1.19231201 10.82526367 2.28696777 11.22021484 3.41479492 C12.64667795 7.48728682 14.07458822 11.55927007 15.50292969 15.63110352 C16.12018502 17.3913823 16.73705111 19.15179762 17.35351562 20.91235352 C18.24115627 23.44714022 19.13020895 25.98142789 20.01953125 28.515625 C20.29356781 29.29914841 20.56760437 30.08267181 20.84994507 30.88993835 C21.92247545 33.94274043 23.00100308 36.95977658 24.24853516 39.9465332 C25.05859375 42.09765625 25.05859375 42.09765625 25.05859375 45.09765625 C21.42859375 45.09765625 17.79859375 45.09765625 14.05859375 45.09765625 C11.05859375 36.34765625 11.05859375 36.34765625 11.05859375 34.09765625 C6.10859375 34.42765625 1.15859375 34.75765625 -3.94140625 35.09765625 C-4.93140625 38.39765625 -5.92140625 41.69765625 -6.94140625 45.09765625 C-10.57140625 45.09765625 -14.20140625 45.09765625 -17.94140625 45.09765625 C-16.69326133 39.10006717 -15.16739344 33.38005456 -13.15625 27.59765625 C-12.76452354 26.45502319 -12.76452354 26.45502319 -12.36488342 25.28930664 C-11.8184183 23.69874275 -11.26960402 22.10898411 -10.71850586 20.52001953 C-9.87205273 18.07788289 -9.03414367 15.63293238 -8.19726562 13.1875 C-7.6632561 11.63654799 -7.12876851 10.08576048 -6.59375 8.53515625 C-6.34270004 7.80296875 -6.09165009 7.07078125 -5.83299255 6.31640625 C-3.67736359 0.12209042 -3.67736359 0.12209042 0 0 Z M3.05859375 10.09765625 C2.38446164 12.01170992 1.71956055 13.92901651 1.05859375 15.84765625 C0.68734375 16.915 0.31609375 17.98234375 -0.06640625 19.08203125 C-1.12718102 22.21458187 -1.12718102 22.21458187 -0.94140625 26.09765625 C2.02859375 26.09765625 4.99859375 26.09765625 8.05859375 26.09765625 C7.04267954 20.62901168 5.98768318 15.33375612 4.05859375 10.09765625 C3.72859375 10.09765625 3.39859375 10.09765625 3.05859375 10.09765625 Z " fill="#3C90AB" transform="translate(18.94140625,3.90234375)"/>
</svg>
